<?xml version="1.0" encoding="UTF-8" standalone="no"?>
<svg
   xmlns:dc="http://purl.org/dc/elements/1.1/"
   xmlns:cc="http://creativecommons.org/ns#"
   xmlns:rdf="http://www.w3.org/1999/02/22-rdf-syntax-ns#"
   xmlns:svg="http://www.w3.org/2000/svg"
   xmlns="http://www.w3.org/2000/svg"
   xmlns:sodipodi="http://sodipodi.sourceforge.net/DTD/sodipodi-0.dtd"
   xmlns:inkscape="http://www.inkscape.org/namespaces/inkscape"
   version="1.1"
   id="Layer_1"
   x="0px"
   y="0px"
   viewBox="0 0 180 180"
   style="enable-background:new 0 0 180 180;"
   xml:space="preserve"
   sodipodi:docname="E.svg"
   inkscape:version="1.0.2 (e86c870879, 2021-01-15)"><metadata
   id="metadata25"><rdf:RDF><cc:Work
       rdf:about=""><dc:format>image/svg+xml</dc:format><dc:type
         rdf:resource="http://purl.org/dc/dcmitype/StillImage" /><dc:title>p</dc:title></cc:Work></rdf:RDF></metadata><sodipodi:namedview
   pagecolor="#ffffff"
   bordercolor="#666666"
   borderopacity="1"
   objecttolerance="10"
   gridtolerance="10"
   guidetolerance="10"
   inkscape:pageopacity="0"
   inkscape:pageshadow="2"
   inkscape:window-width="1920"
   inkscape:window-height="997"
   id="namedview23"
   showgrid="false"
   inkscape:zoom="1.9"
   inkscape:cx="90"
   inkscape:cy="81.489362"
   inkscape:window-x="0"
   inkscape:window-y="28"
   inkscape:window-maximized="1"
   inkscape:current-layer="Layer_1" />
<defs
   id="defs4">
<style
   id="style2">
.cls-1{fill:none;}.cls-2{fill:#f8f8f8;}.cls-3,.cls-4{opacity:0.2;}.cls-4{fill:#fff;}.cls-5{fill:#1a1a1a;}</style>
</defs>
<title
   id="title6">p</title>
<g
   id="g77"
   transform="matrix(0.77712139,0,0,0.83749949,20.269018,10.499298)"><path
     class="cls-2"
     d="m 97.18651,4.854227 a 5.3008277,4.857097 0 0 0 -5.29358,4.850457 5.0435761,4.6213801 0 0 0 1.96018,3.628713 L 89.72984,24.236135 85.60295,13.333397 a 5.0435761,4.6213801 0 0 0 1.96019,-3.628713 5.3008277,4.857097 0 0 0 -5.27547,-4.850457 5.2392322,4.8006579 0 0 0 -5.3117,4.850457 4.9529946,4.5383812 0 0 0 3.34065,4.369063 l -0.66306,12.854874 -5.69938,-5.574208 a 4.9892272,4.5715808 0 0 0 0.81523,-2.30737 5.1522739,4.7209786 0 0 0 -5.0001,-4.62802 5.0363296,4.6147402 0 0 0 -5.05082,4.62802 c 0,2.191172 1.97467,4.269465 4.19211,4.545021 l 8.35523,18.412481 c -5.95664,1.015907 -5.94939,4.299344 -5.93852,8.070815 v 1.201824 h 36.80144 V 50.07868 c 0,-3.774791 0.0217,-7.058228 -5.93852,-8.074135 l 8.35886,-18.412481 c 2.22106,-0.275556 4.19573,-2.353849 4.19573,-4.545021 a 5.0725622,4.6479398 0 0 0 -5.05444,-4.62802 5.1522739,4.7209786 0 0 0 -4.99286,4.62802 4.9421248,4.5284214 0 0 0 0.81886,2.30737 l -5.71026,5.574208 -0.66305,-12.858194 a 5.029083,4.6081003 0 0 0 3.33702,-4.365743 5.2356089,4.797338 0 0 0 -5.29358,-4.850457 z"
     id="path10-1"
     style="fill:#f8f8f8;stroke-width:0.34683" /><path
     class="cls-3"
     d="m 71.50485,15.38513 c 1.92395,2.254251 -1.39495,4.256185 0.45653,6.088801 l 8.41321,7.134588 -6.30447,-7.635901 c 0,0 0.79712,-1.872456 0.29348,-3.253558 -1.13408,-3.1108 -2.85875,-2.33393 -2.85875,-2.33393 z"
     id="path12-1"
     style="opacity:0.2;stroke-width:0.34683" /><path
     class="cls-4"
     d="m 70.84542,15.049815 c -1.74279,0.149398 -4.42762,1.942174 -5.04358,5.590807 -0.0471,0.262277 -1.98917,-1.659978 0.57972,-4.382343 2.02541,-2.157972 4.46386,-1.208464 4.46386,-1.208464 z"
     id="path14-5"
     style="opacity:0.2;fill:#ffffff;stroke-width:0.34683" /><path
     class="cls-4"
     d="m 110.85344,15.049815 c -1.73916,0.149398 -4.42762,1.942174 -5.04357,5.590807 -0.0435,0.262277 -1.98555,-1.659978 0.58334,-4.382343 2.02178,-2.157972 4.46023,-1.208464 4.46023,-1.208464 z"
     id="path16-5"
     style="opacity:0.2;fill:#ffffff;stroke-width:0.34683" /><path
     class="cls-4"
     d="m 83.20798,5.561377 c -1.86236,0.175958 -4.78995,2.254251 -5.07256,6.453997 0,0 -1.91671,-2.443488 0.6232,-5.205693 2.00004,-2.161292 4.44936,-1.248304 4.44936,-1.248304 z"
     id="path18-8"
     style="opacity:0.2;fill:#ffffff;stroke-width:0.34683" /><path
     class="cls-4"
     d="m 98.02711,5.561377 c -1.86236,0.175958 -4.78995,2.254251 -5.07257,6.453997 0,0 -1.91308,-2.443488 0.6232,-5.205693 2.00367,-2.161292 4.44937,-1.248304 4.44937,-1.248304 z"
     id="path20-7"
     style="opacity:0.2;fill:#ffffff;stroke-width:0.34683" /><path
     class="cls-4"
     d="m 89.94,43.96 c 15.60537,0 17.22496,1.57698 17.22496,1.57698 h 0.21378 c -0.69929,-3.379716 -8.87698,-3.751552 -8.87698,-3.751552 H 81.43621 c 0,0 -8.46394,0.268917 -8.93496,3.751552 h 0.21377 c 0,0 1.6196,-1.57698 17.22498,-1.57698 z"
     id="path22"
     style="opacity:0.2;fill:#ffffff;stroke-width:0.34683" /><path
     class="cls-3"
     d="m 99.02713,35.46755 c -5.70301,5.643927 -11.36979,5.477929 -11.36979,5.477929 l 14.39883,1.029187 8.44581,-18.296283 c 0,0 1.96381,-0.205837 3.42761,-2.436849 2.17395,-3.300037 -2.00366,-5.673806 -2.00366,-5.673806 1.30799,1.391062 1.11596,3.701752 0,4.64794 -1.11597,0.946188 -2.84789,1.098906 -3.51094,2.483328 0.0145,-0.0033 -3.94573,7.373624 -9.38786,12.768554 z"
     id="path24"
     style="opacity:0.2;stroke-width:0.34683" /><path
     class="cls-3"
     d="m 99.25539,5.763895 c 2.76817,3.495915 -2.4928,4.64794 -2.17395,7.821819 L 99.16481,28.52552 V 14.249705 c 0,0 3.65224,-2.028494 3.32615,-4.455382 -0.50363,-3.817951 -3.23557,-4.030428 -3.23557,-4.030428 z"
     id="path26"
     style="opacity:0.2;stroke-width:0.34683" /><path
     class="cls-3"
     d="m 83.26233,13.09768 6.46751,13.16363 -4.12327,-12.818355 c 0,0 1.57612,-2.104852 1.57612,-3.920869 0,-3.339876 -3.06165,-3.983948 -3.06165,-3.983948 2.94571,3.615433 -2.01091,4.392303 -0.85871,7.559542 z"
     id="path28"
     style="opacity:0.2;stroke-width:0.34683" /><path
     class="cls-5"
     d="m 109.69038,13.755031 c -3.04716,0 -5.72113,2.473368 -5.72113,5.292012 a 5.3515528,4.9035767 0 0 0 0.64494,2.201131 l -4.16675,4.070268 -0.55798,-10.81642 a 5.7972137,5.3119312 0 0 0 3.31528,-4.807298 5.953014,5.4546892 0 0 0 -6.01823,-5.514448 6.0254793,5.5210887 0 0 0 -6.01823,5.524408 5.7972137,5.3119312 0 0 0 1.83699,3.84119 l -3.26093,8.661768 -3.29355,-8.661768 a 5.7972137,5.3119312 0 0 0 1.837,-3.84119 6.0254793,5.5210887 0 0 0 -6.00012,-5.514449 5.9566373,5.4580095 0 0 0 -6.03635,5.514449 5.7066326,5.2289322 0 0 0 3.31891,4.817257 l -0.54349,10.806461 -4.18487,-4.080228 a 5.3298138,4.8836569 0 0 0 0.64495,-2.211091 c 0,-2.818644 -2.67035,-5.292011 -5.71751,-5.292011 a 5.7972137,5.3119312 0 0 0 -5.77547,5.301971 5.9204046,5.4248099 0 0 0 4.39863,5.135973 l 7.86972,17.340136 c -5.68127,1.284823 -5.6704,4.827216 -5.65953,8.555528 v 1.862496 H 108.8534 V 50.07868 c 0,-3.731632 0.0217,-7.270705 -5.65953,-8.555528 l 7.86972,-17.340136 a 5.9204046,5.4248099 0 0 0 4.40226,-5.135973 5.7972137,5.3119312 0 0 0 -5.77547,-5.292012 z M 107.4041,50.606553 H 72.05559 c 0,-4.315944 -0.29711,-7.303904 6.232,-8.084094 l 0.21015,-0.02988 A 93.157605,85.359413 0 0 1 89.94,41.961386 a 88.33867,80.943872 0 0 1 11.2321,0.561072 c 6.52548,0.79015 6.232,3.758191 6.232,8.090735 z m 2.64498,-27.651921 -8.29364,18.259764 -0.27175,-0.0332 A 92.030768,84.326907 0 0 0 89.94,40.620123 93.8424,85.986888 0 0 0 78.30209,41.167916 c -0.20653,0.02324 -0.40581,0.0498 -0.60146,0.07968 L 69.41061,22.961271 c -1.98555,0 -3.96747,-1.875776 -3.96747,-3.914229 a 4.3080546,3.9474289 0 0 1 4.32617,-3.964029 4.4203756,4.0503475 0 0 1 4.2682,3.964029 c 0,1.235024 -1.02176,2.370449 -1.02176,2.370449 l 7.27913,7.108028 0.77538,-14.963046 a 4.2066034,3.85447 0 0 1 -3.36963,-3.85779 4.496464,4.1200666 0 0 1 4.58704,-4.186466 4.5653059,4.1831458 0 0 1 4.56531,4.186466 4.2935616,3.934149 0 0 1 -2.1015,3.359796 l 4.97836,13.19683 4.99285,-13.19683 a 4.2971848,3.937469 0 0 1 -2.10511,-3.359796 4.5689292,4.1864658 0 0 1 4.56893,-4.186466 4.4928408,4.1167467 0 0 1 4.56893,4.186466 4.2464592,3.8909896 0 0 1 -3.36601,3.85779 l 0.77538,14.963046 7.2755,-7.108028 c 0,0 -1.02176,-1.128785 -1.02176,-2.370449 a 4.4203756,4.0503475 0 0 1 4.27183,-3.964029 4.3080546,3.9474289 0 0 1 4.32616,3.964029 c 0,2.038453 -1.98192,3.914229 -3.96746,3.914229 z"
     id="path30"
     style="fill:#1a1a1a;stroke-width:0.34683" /></g><rect
   class="cls-1"
   width="180"
   height="180"
   id="rect8" />
<path
   class="cls-2"
   d="M89.94,41.92a23,23,0,0,0-14.24,41L63.79,90.75l-.9.59v1.08a12.17,12.17,0,0,0,2,6.93l.39.72.57,1.05H77.13c-.49,5.61-2,19.66-20,31-8,5-12.66,14.66-12.66,26.36v2h91v-2c0-11.7-4.62-21.31-12.67-26.36-17.94-11.28-19.5-25.36-20-31H114l.57-1.05.39-.72a12.17,12.17,0,0,0,2-6.93V91.34l-.9-.59-11.91-7.86a23,23,0,0,0-14.24-41Z"
   id="path10" />
<path
   class="cls-3"
   d="M115.16,127.11c-10.76-7.52-11.49-22.19-12.18-25.54l10.85,0,3.87-9s-11.41-9.29-17-9.46l2.75,0s8.21-6.84,8.92-12.88C115.25,46.21,96.3,43,96.3,43c8.58,4.29,15.07,18.92,7.34,29.82C98.12,80.61,87.34,83,87.34,83h13.3c.16.14,9.38,10-.1,16.16H65.12l.45,2.5,11.45,0S90.26,115,101.23,125.37c10.53,9.93,26.51,11.31,26.51,11.31S120.63,130.94,115.16,127.11Z"
   id="path12" />
<path
   class="cls-4"
   d="M75,92.42C75.6,88,79.14,83,79.24,83L62.47,92.42Z"
   id="path14" />
<path
   class="cls-4"
   d="M92.05,44c-8,.72-20.82,10.3-22.32,30,0,0-8.08-11.62,3.06-24.45C81.56,39.5,92.05,44,92.05,44Z"
   id="path16" />
<path
   class="cls-4"
   d="M46.45,158.45C50.8,144.15,57,142.3,68.3,134c7.54-5.48,8.55-22,8.55-22,.18-.86-3.84,6.67-8.12,10.4-1.41,1.22-11,7.84-15.07,12.17C46.55,142.07,45.61,161.19,46.45,158.45Z"
   id="path18" />
<path
   class="cls-5"
   d="M89.94,43.92a21,21,0,0,1,11.79,38.29l-1.09.75L115,92.42c0,3.06-.72,4-2.15,6.7h-12.3l.1,1c.49,4.57.8,20.93,21.06,33.66,7.45,4.68,11.73,13.68,11.73,24.67h-87c0-11,4.27-20,11.73-24.67,20.3-12.76,20.58-29.1,21.06-33.66l.1-1H67c-1.42-2.65-2.15-3.64-2.15-6.7L79.24,83l-1.09-.74a21,21,0,0,1,11.79-38.3m0-4A25,25,0,0,0,72.42,82.66l-9.73,6.42-1.8,1.19v2.15a14.13,14.13,0,0,0,2.24,7.89l.39.71,1.13,2.1H74.88c-2.49,17-14.27,24.41-18.83,27.27-8.65,5.43-13.6,15.66-13.6,28.06v4h95v-4c0-12.4-5-22.63-13.6-28.06-15.11-9.49-18-21-18.86-27.27h10.26l1.13-2.1.39-.71A14.13,14.13,0,0,0,119,92.42V90.27l-1.8-1.19-9.73-6.42A25,25,0,0,0,89.94,39.92Z"
   id="path20" />
</svg>
