<?xml version="1.0" encoding="UTF-8" standalone="no"?>
<svg
   xmlns:dc="http://purl.org/dc/elements/1.1/"
   xmlns:cc="http://creativecommons.org/ns#"
   xmlns:rdf="http://www.w3.org/1999/02/22-rdf-syntax-ns#"
   xmlns:svg="http://www.w3.org/2000/svg"
   xmlns="http://www.w3.org/2000/svg"
   xmlns:sodipodi="http://sodipodi.sourceforge.net/DTD/sodipodi-0.dtd"
   xmlns:inkscape="http://www.inkscape.org/namespaces/inkscape"
   version="1.1"
   id="Layer_1"
   x="0px"
   y="0px"
   viewBox="0 0 180 180"
   style="enable-background:new 0 0 180 180;"
   xml:space="preserve"
   sodipodi:docname="e.svg"
   inkscape:version="1.0.2 (e86c870879, 2021-01-15)"><metadata
   id="metadata25"><rdf:RDF><cc:Work
       rdf:about=""><dc:format>image/svg+xml</dc:format><dc:type
         rdf:resource="http://purl.org/dc/dcmitype/StillImage" /><dc:title>p</dc:title></cc:Work></rdf:RDF></metadata><sodipodi:namedview
   pagecolor="#ffffff"
   bordercolor="#666666"
   borderopacity="1"
   objecttolerance="10"
   gridtolerance="10"
   guidetolerance="10"
   inkscape:pageopacity="0"
   inkscape:pageshadow="2"
   inkscape:window-width="1663"
   inkscape:window-height="996"
   id="namedview23"
   showgrid="false"
   inkscape:zoom="4.7"
   inkscape:cx="90"
   inkscape:cy="90"
   inkscape:window-x="1966"
   inkscape:window-y="81"
   inkscape:window-maximized="0"
   inkscape:current-layer="Layer_1" />
<defs
   id="defs4">
<style
   id="style2">
.cls-1{fill:none;}.cls-2{fill:#4d4d4d;}.cls-3,.cls-4{opacity:0.2;}.cls-4{fill:#fff;}.cls-5{fill:#1a1a1a;}</style>
</defs>
<title
   id="title6">p</title>
<g
   id="g77"
   transform="matrix(0.28157116,0,0,0.27804618,50.400311,14.714244)"><path
     class="cls-2"
     d="m 161.2183,-0.537799 a 14.63,14.63 0 0 0 -14.61,14.61 13.92,13.92 0 0 0 5.41,10.93 l -11.38,32.84 -11.39,-32.84 a 13.92,13.92 0 0 0 5.41,-10.93 14.63,14.63 0 0 0 -14.56,-14.61 14.46,14.46 0 0 0 -14.66,14.61 13.67,13.67 0 0 0 9.22,13.16 l -1.83,38.72 -15.730002,-16.79 a 13.77,13.77 0 0 0 2.25,-6.95 14.22,14.22 0 0 0 -13.8,-13.94 13.9,13.9 0 0 0 -13.94,13.94 c 0,6.6 5.45,12.86 11.57,13.69 L 106.2383,111.3622 c -16.440002,3.06 -16.420002,12.95 -16.390002,24.31 v 3.62 H 191.4183 v -3.61 c 0,-11.37 0.06,-21.26 -16.39,-24.32 l 23.07,-55.459999 c 6.13,-0.83 11.58,-7.09 11.58,-13.69 a 14,14 0 0 0 -13.95,-13.94 14.22,14.22 0 0 0 -13.78,13.94 13.64,13.64 0 0 0 2.26,6.95 l -15.76,16.79 -1.83,-38.73 a 13.88,13.88 0 0 0 9.21,-13.15 14.45,14.45 0 0 0 -14.61,-14.61 z"
     id="path10-3"
     style="fill:#4d4d4d" /><path
     class="cls-3"
     d="m 90.338298,31.182201 c 5.31,6.79 -3.85,12.82 1.26,18.34 l 23.220002,21.49 -17.400002,-23 c 0,0 2.2,-5.64 0.81,-9.8 -3.13,-9.37 -7.89,-7.03 -7.89,-7.03 z"
     id="path12-6"
     style="opacity:0.2" /><path
     class="cls-4"
     d="m 88.518298,30.172201 c -4.81,0.45 -12.22,5.85 -13.92,16.84 -0.13,0.79 -5.49,-5 1.6,-13.2 5.59,-6.5 12.32,-3.64 12.32,-3.64 z"
     id="path14-7"
     style="opacity:0.2;fill:#ffffff" /><path
     class="cls-4"
     d="m 198.9383,30.172201 c -4.8,0.45 -12.22,5.85 -13.92,16.84 -0.12,0.79 -5.48,-5 1.61,-13.2 5.58,-6.5 12.31,-3.64 12.31,-3.64 z"
     id="path16-5"
     style="opacity:0.2;fill:#ffffff" /><path
     class="cls-4"
     d="m 122.6383,1.592201 c -5.14,0.53 -13.22,6.79 -14,19.44 0,0 -5.29,-7.36 1.72,-15.68 5.52,-6.51 12.28,-3.76 12.28,-3.76 z"
     id="path18-3"
     style="opacity:0.2;fill:#ffffff" /><path
     class="cls-4"
     d="m 163.5383,1.592201 c -5.14,0.53 -13.22,6.79 -14,19.44 0,0 -5.28,-7.36 1.72,-15.68 5.53,-6.51 12.28,-3.76 12.28,-3.76 z"
     id="path20-5"
     style="opacity:0.2;fill:#ffffff" /><path
     class="cls-4"
     d="m 141.2183,117.2522 c 43.07,0 47.54,4.75 47.54,4.75 h 0.59 c -1.93,-10.18 -24.5,-11.3 -24.5,-11.3 h -47.1 c 0,0 -23.360002,0.81 -24.660002,11.3 h 0.59 c 0,0 4.47,-4.75 47.540002,-4.75 z"
     id="path22"
     style="opacity:0.2;fill:#ffffff" /><path
     class="cls-3"
     d="m 166.2983,91.672201 c -15.74,16.999999 -31.38,16.499999 -31.38,16.499999 l 39.74,3.1 23.31,-55.109999 c 0,0 5.42,-0.62 9.46,-7.34 6,-9.94 -5.53,-17.09 -5.53,-17.09 3.61,4.19 3.08,11.15 0,14 -3.08,2.85 -7.86,3.31 -9.69,7.48 0.04,-0.01 -10.89,22.21 -25.91,38.46 z"
     id="path24"
     style="opacity:0.2" /><path
     class="cls-3"
     d="m 166.9283,2.202201 c 7.64,10.53 -6.88,14 -6,23.56 l 5.75,45 v -43 c 0,0 10.08,-6.11 9.18,-13.42 -1.39,-11.5 -8.93,-12.14 -8.93,-12.14 z"
     id="path26"
     style="opacity:0.2" /><path
     class="cls-3"
     d="m 122.7883,24.292201 17.85,39.65 -11.38,-38.61 c 0,0 4.35,-6.34 4.35,-11.81 0,-10.06 -8.45,-12 -8.45,-12 8.13,10.89 -5.55,13.23 -2.37,22.77 z"
     id="path28"
     style="opacity:0.2" /><path
     class="cls-5"
     d="m 195.7283,26.272201 c -8.41,0 -15.79,7.45 -15.79,15.94 a 14.77,14.77 0 0 0 1.78,6.63 l -11.5,12.26 -1.54,-32.58 a 16,16 0 0 0 9.15,-14.48 16.43,16.43 0 0 0 -16.61,-16.61 16.63,16.63 0 0 0 -16.61,16.64 16,16 0 0 0 5.07,11.57 l -9,26.09 -9.09,-26.09 a 16,16 0 0 0 5.07,-11.57 16.63,16.63 0 0 0 -16.56,-16.61 16.44,16.44 0 0 0 -16.66,16.61 15.75,15.75 0 0 0 9.16,14.51 l -1.5,32.55 -11.550002,-12.29 a 14.71,14.71 0 0 0 1.780002,-6.66 c 0,-8.49 -7.370002,-15.94 -15.780002,-15.94 a 16,16 0 0 0 -15.94,15.97 16.34,16.34 0 0 0 12.14,15.47 L 103.4683,109.9122 c -15.680002,3.87 -15.650002,14.54 -15.620002,25.77 v 5.61 H 193.4183 v -5.61 c 0,-11.24 0.06,-21.9 -15.62,-25.77 l 21.72,-52.229999 a 16.34,16.34 0 0 0 12.15,-15.47 16,16 0 0 0 -15.94,-15.94 z m -6.31,110.999999 H 91.858298 c 0,-13 -0.82,-22 17.200002,-24.35 l 0.58,-0.09 a 257.11,257.11 0 0 1 31.58,-1.6 243.81,243.81 0 0 1 31,1.69 c 18.01,2.38 17.2,11.32 17.2,24.37 z m 7.3,-83.289999 -22.89,54.999999 -0.75,-0.1 a 254,254 0 0 0 -31.86,-1.69 259,259 0 0 0 -32.12,1.65 c -0.57,0.07 -1.12,0.15 -1.66,0.24 L 84.558298,54.002201 c -5.48,0 -10.95,-5.65 -10.95,-11.79 a 11.89,11.89 0 0 1 11.94,-11.94 12.2,12.2 0 0 1 11.78,11.94 c 0,3.72 -2.82,7.14 -2.82,7.14 l 20.090002,21.41 2.14,-45.07 a 11.61,11.61 0 0 1 -9.3,-11.62 12.41,12.41 0 0 1 12.66,-12.61 12.6,12.6 0 0 1 12.6,12.61 11.85,11.85 0 0 1 -5.8,10.12 l 13.74,39.75 13.78,-39.75 a 11.86,11.86 0 0 1 -5.81,-10.12 12.61,12.61 0 0 1 12.61,-12.61 12.4,12.4 0 0 1 12.61,12.61 11.72,11.72 0 0 1 -9.29,11.62 l 2.14,45.07 20.08,-21.41 c 0,0 -2.82,-3.4 -2.82,-7.14 a 12.2,12.2 0 0 1 11.79,-11.94 11.89,11.89 0 0 1 11.94,11.94 c 0,6.14 -5.47,11.79 -10.95,11.79 z"
     id="path30"
     style="fill:#1a1a1a" /></g><rect
   class="cls-1"
   width="180"
   height="180"
   id="rect8" />
<path
   class="cls-2"
   d="M89.94,41.92a23,23,0,0,0-14.24,41L63.79,90.75l-.9.59v1.08a12.17,12.17,0,0,0,2,6.93l.39.72.57,1.05H77.13c-.49,5.61-2,19.66-20,31-8,5-12.66,14.66-12.66,26.36v2h91v-2c0-11.7-4.62-21.31-12.67-26.36-17.94-11.28-19.5-25.36-20-31H114l.57-1.05.39-.72a12.17,12.17,0,0,0,2-6.93V91.34l-.9-.59-11.91-7.86a23,23,0,0,0-14.24-41Z"
   id="path10" />
<path
   class="cls-3"
   d="M115.16,127.11c-10.76-7.52-11.49-22.19-12.18-25.54l10.85,0,3.87-9s-11.41-9.29-17-9.46l2.75,0s8.21-6.84,8.92-12.88C115.25,46.21,96.3,43,96.3,43c8.58,4.29,15.07,18.92,7.34,29.82C98.12,80.61,87.34,83,87.34,83h13.3c.16.14,9.38,10-.1,16.16H65.12l.45,2.5,11.45,0S90.26,115,101.23,125.37c10.53,9.93,26.51,11.31,26.51,11.31S120.63,130.94,115.16,127.11Z"
   id="path12" />
<path
   class="cls-4"
   d="M75,92.42C75.6,88,79.14,83,79.24,83L62.47,92.42Z"
   id="path14" />
<path
   class="cls-4"
   d="M92.05,44c-8,.72-20.82,10.3-22.32,30,0,0-8.08-11.62,3.06-24.45C81.56,39.5,92.05,44,92.05,44Z"
   id="path16" />
<path
   class="cls-4"
   d="M46.45,158.45C50.8,144.15,57,142.3,68.3,134c7.54-5.48,8.55-22,8.55-22,.18-.86-3.84,6.67-8.12,10.4-1.41,1.22-11,7.84-15.07,12.17C46.55,142.07,45.61,161.19,46.45,158.45Z"
   id="path18" />
<path
   class="cls-5"
   d="M89.94,43.92a21,21,0,0,1,11.79,38.29l-1.09.75L115,92.42c0,3.06-.72,4-2.15,6.7h-12.3l.1,1c.49,4.57.8,20.93,21.06,33.66,7.45,4.68,11.73,13.68,11.73,24.67h-87c0-11,4.27-20,11.73-24.67,20.3-12.76,20.58-29.1,21.06-33.66l.1-1H67c-1.42-2.65-2.15-3.64-2.15-6.7L79.24,83l-1.09-.74a21,21,0,0,1,11.79-38.3m0-4A25,25,0,0,0,72.42,82.66l-9.73,6.42-1.8,1.19v2.15a14.13,14.13,0,0,0,2.24,7.89l.39.71,1.13,2.1H74.88c-2.49,17-14.27,24.41-18.83,27.27-8.65,5.43-13.6,15.66-13.6,28.06v4h95v-4c0-12.4-5-22.63-13.6-28.06-15.11-9.49-18-21-18.86-27.27h10.26l1.13-2.1.39-.71A14.13,14.13,0,0,0,119,92.42V90.27l-1.8-1.19-9.73-6.42A25,25,0,0,0,89.94,39.92Z"
   id="path20" />
</svg>
