<?xml version="1.0" encoding="UTF-8" standalone="no"?>
<svg
   xmlns:dc="http://purl.org/dc/elements/1.1/"
   xmlns:cc="http://creativecommons.org/ns#"
   xmlns:rdf="http://www.w3.org/1999/02/22-rdf-syntax-ns#"
   xmlns:svg="http://www.w3.org/2000/svg"
   xmlns="http://www.w3.org/2000/svg"
   xmlns:sodipodi="http://sodipodi.sourceforge.net/DTD/sodipodi-0.dtd"
   xmlns:inkscape="http://www.inkscape.org/namespaces/inkscape"
   id="Layer_1"
   data-name="Layer 1"
   viewBox="0 0 180 180"
   version="1.1"
   sodipodi:docname="G.svg"
   inkscape:version="1.0.1 (3bc2e813f5, 2020-09-07)">
  <metadata
     id="metadata47">
    <rdf:RDF>
      <cc:Work
         rdf:about="">
        <dc:format>image/svg+xml</dc:format>
        <dc:type
           rdf:resource="http://purl.org/dc/dcmitype/StillImage" />
      </cc:Work>
    </rdf:RDF>
  </metadata>
  <sodipodi:namedview
     pagecolor="#ffffff"
     bordercolor="#666666"
     borderopacity="1"
     objecttolerance="10"
     gridtolerance="10"
     guidetolerance="10"
     inkscape:pageopacity="0"
     inkscape:pageshadow="2"
     inkscape:window-width="1920"
     inkscape:window-height="997"
     id="namedview45"
     showgrid="false"
     inkscape:zoom="7.6524625"
     inkscape:cx="126.73995"
     inkscape:cy="71.988736"
     inkscape:window-x="1600"
     inkscape:window-y="28"
     inkscape:window-maximized="1"
     inkscape:current-layer="Layer_1" />
  <defs
     id="defs4">
    <style
       id="style2">.cls-1,.cls-4{fill:none;stroke-miterlimit:10;}.cls-1{stroke:#f8f8f8;}.cls-2{fill:#f8f8f8;}.cls-3{fill:#1a1a1a;}.cls-4{stroke:#1a1a1a;stroke-width:4px;}.cls-5,.cls-7{fill:#fff;}.cls-5,.cls-6,.cls-8{opacity:0.2;}.cls-5,.cls-8{isolation:isolate;}.cls-8{fill:#040000;}</style>
  </defs>
  <path
     class="cls-1"
     d="m 109.60808,107.66489 c 3.53731,-5.56 14.02428,-24.294108 14.18637,-26.654108 0.16209,-2.36 -1.20135,-3.29 -4.48123,-8.92 -2.1834,-3.75 -3.27987,-5.67 -3.11778,-7.35 0.44812,-4.7 6.96973,-7.46 7.7897,-7.8 4.58834,-1.901418 4.92546,-1.529336 16.51377,-0.54 6.09256,-0.18 9.13407,-0.27 11.52723,-1.4 7.89458,-3.75 11.44142,-7 11.44142,-7 0.57208,-0.52 1.9069,-1.83 3.32755,-1.51 1.12397,0.413677 1.98047,1.383106 2.28827,2.59 0.7437,2.69 -2.07852,5.52 -3.5945,7.08 -0.98465,1.016593 -2.07898,1.909288 -3.2608,2.66 -4.10914,2.526274 -8.6805,4.114232 -13.41506,4.66 -5.94002,0.51 -6.61696,-1.23 -12.15651,-0.87 -3.90773,0.282394 -7.72115,1.387724 -11.21259,3.25"
     id="path6"
     style="stroke-width:0.976448"
     sodipodi:nodetypes="csccccccccccccc" />
  <path
     class="cls-1"
     d="m 108.49155,115.19078 c 3.26081,-4.37 20.14643,-14.88 22.43471,-15.499998 3.66125,-1 5.06283,0.419998 10.03984,-0.8 2.37409,-0.58 5.80653,-1.47 8.10434,-4.54 1.33484,-1.8 2.66013,-4.64 1.50646,-6.25 -0.60067,-0.84 -1.3825,-1.09 -6.21651,-1.11 -6.04488,0 -7.0174,0 -8.86709,0.58 -1.57211,0.614698 -2.94238,1.690841 -3.94729,3.1"
     id="path8"
     style="stroke-width:0.976448"
     sodipodi:nodetypes="cccccccc" />
  <path
     class="cls-1"
     d="m 165.48888,53.980782 c 0.3337,1.24 1.9069,7 0.7723,10.57 -0.56371,1.792187 -1.51305,3.424295 -2.77455,4.77 -0.81044,0.83 -3.27988,3 -15.43638,3.53 -5.58723,0.22 -6.91251,-0.17 -9.97311,0.79 -2.5847,0.831553 -5.00199,2.153438 -7.13181,3.9"
     id="path10"
     style="stroke-width:0.976448"
     sodipodi:nodetypes="cccccc" />
  <path
     class="cls-1"
     d="m 158.22358,72.630782 c 1.26334,2.10352 1.66223,4.653362 1.106,7.07 -0.95345,3.76 -5.12004,7.82 -9.53451,7.93"
     id="path12"
     style="stroke-width:0.976448"
     sodipodi:nodetypes="ccc" />
  <polygon
     class="cls-2"
     points="169.08,54.82 168.95,63.88 166.65,67.45 164.78,68.91 160.34,70.36 161.25,73.32 160.27,81.14 156.33,84.39 151.71,86.61 150.84,89.34 149.71,94.39 139.45,97.7 129.69,99.76 116.06,106.41 108.7,111.29 104.54,107.8 121.49,80.42 121.49,78.27 115.05,66.03 114.09,60.74 119.42,56.39 129.69,54.44 146.83,54.49 160.92,50.66 168.73,44.49 172.06,46.39 "
     id="polygon14"
     transform="matrix(0.9534514,0,0,1,6.4722502,1.4807819)" />
  <path
     class="cls-3"
     d="m 91.329425,135.33078 c 8.593774,-14.48667 15.051965,-29.05555 23.333205,-43.729998 1.03401,-1.832271 2.02976,-3.690586 3.0129,-5.54 0.4947,-0.930587 0.97591,-1.845884 1.42065,-2.79 0.2075,-0.440497 0.41089,-0.88267 0.5816,-1.34 v -0.11 c 0,0 0,0.06 0,0 v -0.34 c -0.0156,-0.209057 -0.0475,-0.416421 -0.0954,-0.62 -0.28197,-0.887544 -0.16056,-1.669854 -0.72336,-2.395643 l -1.04745,-2.644731 c -1.19182,-1.78 -1.59713,-3.569626 -2.68406,-5.409626 -0.57758,-0.959647 -1.08745,-1.962323 -1.52553,-3 -0.24153,-0.621843 -0.40499,-1.273971 -0.48626,-1.94 -0.0335,-0.369167 -0.0335,-0.740833 0,-1.11 0.0332,-0.337377 0.0906,-0.671654 0.17163,-1 0.32636,-1.256044 0.90864,-2.422878 1.70667,-3.42 0.74819,-0.923788 1.59971,-1.749733 2.53618,-2.46 1.78328,-1.378773 3.76197,-2.455223 5.86374,-3.19 1.09836,-0.380733 2.23945,-0.609334 3.39428,-0.68 1.08271,-0.07057 2.16856,-0.07057 3.25127,0 2.06898,0.11 4.02357,0.22 6.01628,0.26 1.99271,0.04 3.96636,0 6.00674,-0.11 2.04038,-0.11 4.04263,-0.15 5.93046,-0.37 0.89481,-0.09634 1.77903,-0.280479 2.64106,-0.55 0.40808,-0.124669 0.80651,-0.281791 1.19181,-0.47 l 1.34437,-0.66 c 1.80203,-0.9 3.55638,-1.86 5.25352,-2.91 1.66636,-1.009308 3.25974,-2.145703 4.76726,-3.4 0.42775,-0.410854 0.88343,-0.788518 1.36344,-1.13 0.60483,-0.438799 1.28465,-0.751168 2.00225,-0.92 0.88568,-0.205568 1.81139,-0.09652 2.63152,0.31 0.71328,0.366688 1.3315,0.908741 1.80202,1.58 0.41258,0.590403 0.73431,1.245025 0.95346,1.94 0.24224,0.762621 0.31719,1.572759 0.21928,2.37 -0.19678,1.352872 -0.71482,2.632109 -1.50644,3.72 -0.65593,0.9425 -1.38975,1.822568 -2.19294,2.63 -0.75713,0.809811 -1.56285,1.568024 -2.41223,2.27 -0.8676,0.704263 -1.79288,1.326686 -2.76502,1.86 -0.92658,0.545527 -1.88152,1.036293 -2.86035,1.47 -3.88574,1.784685 -7.26723,4.229001 -11.50501,4.427275 -1.06647,0.02784 -3.45257,0.255499 -4.51311,0.134429 -1.04165,-0.139643 -3.96492,-0.134467 -4.98056,-0.414381 -1.90691,-0.520229 -4.59842,0.468114 -6.56768,0.537366 -4.39423,0.768901 -6.02273,3.731426 -8.24278,1.04329 -3.46437,-2.375324 5.56029,-4.73826 10.2255,-4.992651 1.04409,-0.128571 2.09534,-0.18203 3.14639,-0.16 1.05157,0.04139 2.09943,0.15497 3.13685,0.34 1.01066,0.16 1.96411,0.31 2.9271,0.37 0.9539,0.03985 1.90926,0.01647 2.86035,-0.07 1.94079,-0.206503 3.85715,-0.615186 5.72072,-1.22 1.87938,-0.568423 4.78046,-1.836313 6.54321,-2.725328 0.87717,-0.45 1.73528,-0.93 2.55525,-1.46 0.80767,-0.500825 1.57319,-1.072893 2.28828,-1.71 0.75434,-0.66166 1.47068,-1.369564 2.14527,-2.12 0.65306,-0.683938 1.2436,-1.430533 1.76388,-2.23 0.44509,-0.618778 0.73668,-1.343817 0.84857,-2.11 0.0279,-0.264258 -0.005,-0.531671 -0.0954,-0.78 -0.1102,-0.308303 -0.26804,-0.595476 -0.46719,-0.85 -0.1378,-0.190671 -0.31348,-0.347631 -0.51487,-0.46 -0.1119,-0.0356 -0.23134,-0.0356 -0.34324,0 -0.26912,0.09211 -0.52315,0.227013 -0.75322,0.4 -0.16302,0.11286 -0.31907,0.236441 -0.46719,0.37 l -0.54348,0.5 c -1.66063,1.412822 -3.41991,2.693076 -5.26305,3.83 -1.80519,1.126667 -3.64217,2.166667 -5.51094,3.12 l -1.41111,0.71 c -0.53282,0.266919 -1.08424,0.4909 -1.64948,0.67 -1.08905,0.336109 -2.20666,0.560495 -3.33707,0.67 -2.15481,0.24 -4.20472,0.28 -6.24511,0.34 -4.13443,0.175604 -8.27544,0.05867 -12.39487,-0.35 -0.95076,-0.09289 -1.90555,-0.132943 -2.86035,-0.12 -0.87508,0.03657 -1.7427,0.184312 -2.58386,0.44 -1.77624,0.58214 -3.46002,1.438176 -4.99608,2.54 -1.45496,0.909822 -2.58661,2.293367 -3.22266,3.94 0,0.19 -0.0954,0.38 -0.12395,0.57 -0.0139,0.163006 -0.0139,0.326994 0,0.49 0.0331,0.396499 0.1165,0.786599 0.24789,1.16 0.34009,0.923417 0.74482,1.819192 1.21088,2.68 0.95346,1.84 1.90691,3.71 2.99384,5.49 l 1.62087,2.7 c 0.65642,0.989435 1.12276,2.103521 1.37297,3.28 0.0439,0.331257 0.063,0.665614 0.0571,1 v 0.46 c -0.007,0.125081 -0.0258,0.249087 -0.0571,0.37 0,0.12 -0.0477,0.18 -0.0763,0.27 -0.2099,0.533833 -0.44864,1.054678 -0.71508,1.56 -0.48626,1 -0.95345,1.89 -1.516,2.81 -1.03925,1.85 -2.09758,3.67 -3.16545,5.49 -4.281,7.27 -3.9435,0.345148 -8.38659,7.49515 -4.44308,7.149998 -11.877151,27.297018 -18.252841,35.394848 z"
     id="path16"
     style="stroke-width:0.976448"
     sodipodi:nodetypes="cssaccsccccccccccccccssccccccccccccccccccccccccccccccccccccccccccccccccccccccccccccccccccscc" />
  <path
     class="cls-3"
     d="m 106.45117,118.26078 c 0.45587,-0.72005 0.97973,-1.39009 1.56366,-2 0.56253,-0.62 1.15367,-1.21 1.76388,-1.78 1.22042,-1.14 2.46944,-2.24 3.75659,-3.28 2.57433,-2.11 5.23446,-4.09 7.9518,-6 1.36343,-1 2.72686,-1.88 4.14751,-2.75 0.70555,-0.45 1.42064,-0.88 2.15479,-1.3 0.37185,-0.21 0.75324,-0.42 1.16322,-0.62 0.24546,-0.11776 0.49691,-0.22125 0.75322,-0.31 l 0.66743,-0.2 c 1.71288,-0.405808 3.474,-0.540634 5.22491,-0.399998 1.46859,0.008 2.93233,-0.177134 4.35726,-0.55 1.45673,-0.323625 2.88066,-0.79242 4.25241,-1.4 1.24053,-0.565669 2.35692,-1.392791 3.27986,-2.43 0.88975,-1.009881 1.57136,-2.201363 2.00225,-3.5 0.0726,-0.239763 0.1143,-0.488638 0.12396,-0.74 0.006,-0.141786 -0.0102,-0.283634 -0.0477,-0.42 v -0.07 -0.07 0 c -0.20763,-0.115874 -0.43391,-0.190462 -0.66741,-0.22 -1.52938,-0.238953 -5.07333,-0.656142 -6.61825,-0.723639 -1.61133,-0.08 -3.23221,-0.25 -4.82447,-0.35 -0.8009,0 -1.59226,-0.09 -2.33595,-0.08 -0.75437,0.02261 -1.50342,0.140116 -2.23108,0.35 -1.50292,0.499101 -2.89429,1.931401 -4.08981,2.065197 0.78305,-1.558678 2.07906,-2.372547 3.52728,-3.265197 1.56325,-0.762439 3.25453,-1.194008 4.97701,-1.27 1.63994,-0.14 3.2608,-0.29 4.87213,-0.36 1.6952,-0.120733 5.39979,0.142906 7.09498,0.263639 0.57172,0.05995 1.13125,0.211723 1.659,0.45 0.35365,0.170122 0.6763,0.403619 0.95346,0.69 0.14301,0.15 0.24789,0.28 0.35277,0.41 0.10488,0.13 0.20023,0.31 0.29557,0.47 0.33612,0.611713 0.53501,1.29567 0.5816,2 0.0281,0.594055 -0.02,1.189381 -0.14301,1.77 -0.21702,0.99632 -0.57367,1.953391 -1.05833,2.84 -0.4511,0.864351 -0.98459,1.678514 -1.59227,2.43 -1.26288,1.482758 -2.81794,2.659928 -4.5575,3.449998 -1.61558,0.71081 -3.30052,1.23392 -5.02468,1.56 -1.73312,0.37596 -3.50811,0.49378 -5.27259,0.35 -1.47612,-0.2132 -2.97177,-0.23336 -4.45262,-0.06 l -0.50533,0.09 -0.39091,0.14 c -0.32418,0.13 -0.67695,0.29 -1.02973,0.47 -0.70554,0.34 -1.42064,0.71 -2.12619,1.09 -1.42383,0.77333 -2.8413,1.56 -4.25241,2.36 -2.86034,1.63 -5.62535,3.3 -8.38082,5.05 -1.37298,0.89 -2.74595,1.77 -4.08078,2.72 -1.35689,0.91446 -2.62755,1.96253 -3.79473,3.13 z"
     id="path18"
     style="stroke-width:0.976448"
     sodipodi:nodetypes="scsccccccccccccccccsccccccccccccsccccccccccccccccss" />
  <path
     class="cls-3"
     d="m 166.40241,54.531092 c 1.71404,0.57612 2.12796,2.201439 2.47685,4.52339 0.20141,1.221815 -0.0804,3.323364 -0.20586,4.5563 -0.1613,1.26548 -0.48191,2.502935 -0.95344,3.68 -0.50438,1.195411 -1.18667,2.299172 -2.02133,3.27 -0.46026,0.54836 -0.99711,1.020388 -1.59226,1.4 -0.53844,0.356302 -1.10646,0.660872 -1.69714,0.91 -2.18225,0.887182 -4.46354,1.478627 -6.78857,1.76 -2.2323,0.308419 -4.47998,0.478714 -6.73137,0.51 -2.22154,0.06 -4.49075,0 -6.61696,-0.15 -1.01089,-0.06938 -2.02569,-0.0426 -3.03197,0.08 -1.03119,0.13569 -2.05111,0.352976 -3.05105,0.65 -2.08983,0.622804 -4.11491,1.463671 -6.04487,2.51 1.49882,-1.794921 3.29885,-3.286265 5.31073,-4.4 1.03646,-0.565325 2.11406,-1.043492 3.22265,-1.43 1.14474,-0.344469 2.32071,-0.562322 3.5087,-0.65 l 6.54068,-0.46 c 2.1548,-0.14 4.30006,-0.35 6.40719,-0.61 2.04465,-0.213081 4.06743,-0.614633 6.04489,-1.2 0.43706,-0.145442 0.86396,-0.322534 1.27763,-0.53 0.36984,-0.177526 0.71341,-0.409903 1.02018,-0.69 0.72906,-0.668121 0.56189,-0.941314 1.0985,-1.786492 0.55361,-0.854496 0.98112,-1.791712 1.2681,-2.78 0.2469,-1.044523 -0.0139,-1.593739 0.0117,-2.669549 0.0407,-2.284573 -0.93932,-4.577241 0.54705,-6.493649 z"
     id="path20"
     style="stroke-width:0.976448"
     sodipodi:nodetypes="cccccccccccccccccccccccccc" />
  <path
     class="cls-4"
     d="m 158.9482,73.020782 c 1.33643,2.23666 1.75905,4.943056 1.17275,7.51 -1.06787,4 -5.40608,8.31 -10.04938,8.42"
     id="path22"
     sodipodi:nodetypes="ccc" />
  <path
     class="cls-2"
     d="m 52.319467,26.07 h -0.762761 c -2.574319,0 -5.148637,2.5 -5.911398,5.6 l -1.439712,6.9 c -1.239487,3.1 -3.337081,5.4 -6.769504,8.3 a 18.830665,19.75 0 0 0 -5.816055,8.7 l -0.19069,0.4 c -0.858107,2.3 -1.525523,4.3 -2.097593,6.1 A 41.112826,43.12 0 0 1 23.5157,74.87 l -10.955156,16.4 c -3.4324254,4.6 -3.0510448,10.8 0.858106,14.3 3.909151,3.5 13.7297,6.3 17.06678,6.3 a 2.9270959,3.07 0 0 0 2.288284,-0.8 26.69664,28 0 0 0 3.52777,-4.8 c 2.192938,-3.6 3.813805,-6.2 9.439169,-6.2 8.295028,0 15.541258,-8 18.973682,-11.8 v 0 l 2.097594,-2.5 c 1.430177,2.3 2.955699,6.1 1.906903,10.1 a 16.847487,17.67 0 0 1 -2.192938,4.8 41.274911,43.29 0 0 1 -7.627612,8 l -0.19069,0.2 c -7.150886,6.1 -19.069028,16.2 -21.071276,30.3 -12.680904,3.6 -12.680904,12.9 -12.680904,23.6 v 3.6 h 96.870668 v -3.6 c 0,-10.7 0.0954,-20 -12.68091,-23.6 0.38138,-1.6 0.95345,-3.6 1.52553,-5.9 2.47896,-9.2 5.91139,-21.9 5.91139,-30.2 0,-19.6 -5.91139,-36 -17.066778,-47.5 A 56.320374,59.07 0 0 0 64.428301,39.17 L 52.891538,26.67 Z"
     id="path24"
     style="stroke-width:0.976448" />
  <path
     class="cls-5"
     d="m 73.962815,144.27 c 41.093755,0 45.288945,4.8 45.288945,4.8 h 0.57207 c -1.81156,-10.2 -23.359562,-11.3 -23.359562,-11.3 H 51.556706 c 0,0 -22.310763,0.8 -23.550249,11.3 h 0.57207 c 0,-0.07 4.290531,-4.8 45.384288,-4.8 z"
     id="path26"
     style="stroke-width:0.976448" />
  <g
     class="cls-6"
     id="g30"
     transform="matrix(0.9534514,0,0,1,7.020991,0)">
    <path
       class="cls-7"
       d="m 44.11,46 c 8.1,-5 2.6,-18 2.6,-18 a 5,5 0 0 0 -5,4 l -1.5,6.9 c -1.4,3.4 -3.7,5.7 -7.5,8.8 a 18,18 0 0 0 -5.8,8.3 l -0.2,0.4 c -0.9,2.3 -1.5,4.2 -2.1,6 a 42.61,42.61 0 0 1 -6.2,13.1 L 6.91,92 c -0.1,0.2 -0.3,0.3 -0.4,0.5 a 6,6 0 0 0 -1,7.7 c 0,0 19,-23.5 21.5,-26.7 4.4,-6.03 1.6,-17.83 17.1,-27.5 z"
       id="path28" />
  </g>
  <path
     class="cls-3"
     d="m 50.126529,55.57 c -4.957947,2.1 -6.292779,11.1 -6.292779,11.1 4.862602,-4.4 7.150886,0.7 12.013488,-3.4 4.004496,-3.27 -0.858106,-9.8 -5.720709,-7.7 z"
     id="path32"
     style="stroke-width:0.976448" />
  <path
     class="cls-8"
     d="m 73.104708,71.87 c -1.716212,3.5 -6.006744,10.6 -6.006744,10.6 0,0 -0.476725,1.4 -0.953451,3.5 0,0 2.002248,-0.2 2.383628,6.4 0.09535,1.7 0.858107,7.8 1.906903,5.2 2.860354,-7.4 4.957948,-16.4 4.862602,-19.5 -0.09535,-3.1 -0.476726,-9.7 -2.192938,-6.2 z"
     id="path34"
     style="stroke-width:0.976448" />
  <path
     class="cls-8"
     d="m 63.856229,41 c 0,0 38.900821,5.1 38.900821,44.1 0,26.1 -16.590058,33.4 -20.975934,51 0,0 18.401614,0.2 26.601304,4.2 0,0 8.77174,-24.8 8.77174,-39.6 0,-15.03 -10.86934,-60.93 -53.297931,-59.7 z"
     id="path36"
     style="stroke-width:0.976448" />
  <path
     class="cls-8"
     d="m 49.554458,98 c -8.676407,-4.5 -10.869346,-9.8 -14.206426,0.7 -3.241735,10.2 -8.104336,11.9 -4.862602,13 3.241735,1.1 7.436921,-10.5 10.297275,-10.6 2.860355,-0.1 12.003954,-1.43 8.771753,-3.1 z"
     id="path38"
     style="stroke-width:0.976448" />
  <path
     class="cls-3"
     d="M 51.556706,28.07 63.856229,41 c 24.122321,1.7 51.009661,20.1 51.009661,62 0,11.1 -6.67416,31.5 -7.91365,37.6 13.72969,3 13.06228,11.6 13.06228,23.8 H 27.043471 c 0,-12 -0.667417,-20.5 12.490213,-23.6 1.334831,-14.2 13.7297,-24.5 20.689896,-30.5 a 39.844735,41.79 0 0 0 8.008991,-8.4 19.765047,20.73 0 0 0 2.478974,-5.4 C 72.427758,90.1 68.518607,84.4 67.088429,82.6 l -3.61358,4.4 c -3.71846,4 -10.201931,11.1 -17.638851,11.1 -9.534514,0 -9.82055,7.1 -14.301771,11.7 a 1.7162125,1.8 0 0 1 -0.953451,0.2 c -3.14639,0 -12.299525,-2.7 -15.827294,-5.8 -3.051045,-2.7 -3.432425,-7.8 -0.57207,-11.5 L 25.336793,76.2 c 4.957946,-7.6 5.243983,-11.7 8.104337,-19.3 a 16.761676,17.58 0 0 1 5.339328,-8.3 c 3.623114,-3.2 6.006743,-5.6 7.436921,-9.3 l 1.430177,-7 c 0.38138,-2.3 2.192938,-4.2 3.90915,-4.2 m 1.620868,-4 h -1.620868 c -3.52777,0 -6.86485,3.1 -7.722956,7.2 v 0.1 L 42.498918,38 c -1.144142,2.7 -2.9557,4.6 -6.197434,7.4 a 20.251308,21.24 0 0 0 -6.388125,9.5 l -0.19069,0.4 c -0.858106,2.3 -1.525522,4.4 -2.097593,6.2 A 37.842487,39.69 0 0 1 22.095058,73.8 L 11.035022,90.07 c -4.0044965,5.3 -3.6231159,12.8 1.144141,17 4.385877,3.9 14.683152,6.8 18.306267,6.8 a 4.9579473,5.2 0 0 0 3.623116,-1.3 27.449866,28.79 0 0 0 3.813805,-5.2 c 2.097594,-3.4 3.241735,-5.3 7.818302,-5.3 9.153132,0 16.6854,-8.4 20.40386,-12.4 l 0.09535,-0.1 0.09535,-0.1 0.286036,-0.3 a 9.0673229,9.51 0 0 1 0.476725,6 12.890664,13.52 0 0 1 -1.906903,4.2 37.260881,39.08 0 0 1 -7.246231,7.6 l -0.19069,0.2 c -7.246231,6.1 -18.878338,16.1 -21.548001,30.3 -5.530019,1.8 -9.153135,5 -11.060036,9.5 -1.906904,4.5 -1.906904,9.7 -1.811559,15.7 v 5.6 H 123.92367 v -5.6 c 0,-6.1 0,-11.3 -1.9069,-15.9 -1.90691,-4.3 -5.14863,-7.3 -10.29728,-9.1 0.28603,-1.2 0.66741,-2.6 1.0488,-4 2.57431,-9.4 6.00674,-22.2 6.00674,-30.8 0,-42.1 -26.410604,-63.3 -53.107243,-65.8 L 54.22637,25.27 53.177574,24.07 Z"
     id="path40"
     style="stroke-width:0.976448" />
  <path
     class="cls-3"
     d="m 73.962815,138.27 a 241.32808,253.11 0 0 1 29.938375,1.7 45.41289,47.63 0 0 1 4.95795,1 l 0.66741,-4 a 47.071896,49.37 0 0 0 -5.05329,-1 249.05104,261.21 0 0 0 -30.4151,-1.7 v 0 a 247.43971,259.52 0 0 0 -30.319755,1.6 52.268207,54.82 0 0 0 -5.339328,1 l 0.762761,3.9 a 43.019727,45.12 0 0 1 5.053293,-1 255.83962,268.33 0 0 1 29.747684,-1.5 z"
     id="path42"
     style="stroke-width:0.976448" />
</svg>
