<?xml version="1.0" encoding="UTF-8" standalone="no"?>
<svg
   xmlns:dc="http://purl.org/dc/elements/1.1/"
   xmlns:cc="http://creativecommons.org/ns#"
   xmlns:rdf="http://www.w3.org/1999/02/22-rdf-syntax-ns#"
   xmlns:svg="http://www.w3.org/2000/svg"
   xmlns="http://www.w3.org/2000/svg"
   xmlns:sodipodi="http://sodipodi.sourceforge.net/DTD/sodipodi-0.dtd"
   xmlns:inkscape="http://www.inkscape.org/namespaces/inkscape"
   version="1.1"
   id="Layer_1"
   x="0px"
   y="0px"
   viewBox="0 0 180 180"
   style="enable-background:new 0 0 180 180;"
   xml:space="preserve"
   sodipodi:docname="h.svg"
   inkscape:version="1.0.1 (3bc2e813f5, 2020-09-07)"><metadata
   id="metadata3253"><rdf:RDF><cc:Work
       rdf:about=""><dc:format>image/svg+xml</dc:format><dc:type
         rdf:resource="http://purl.org/dc/dcmitype/StillImage" /><dc:title>p</dc:title></cc:Work></rdf:RDF></metadata><sodipodi:namedview
   pagecolor="#ffffff"
   bordercolor="#666666"
   borderopacity="1"
   objecttolerance="10"
   gridtolerance="10"
   guidetolerance="10"
   inkscape:pageopacity="0"
   inkscape:pageshadow="2"
   inkscape:window-width="1920"
   inkscape:window-height="997"
   id="namedview3251"
   showgrid="false"
   inkscape:zoom="8.2"
   inkscape:cx="90"
   inkscape:cy="119.07977"
   inkscape:window-x="1600"
   inkscape:window-y="28"
   inkscape:window-maximized="1"
   inkscape:current-layer="Layer_1"
   inkscape:document-rotation="0" />
<defs
   id="defs3232">
<style
   id="style3230">
.cls-1{fill:none;}.cls-2{fill:#4d4d4d;}.cls-3,.cls-4{opacity:0.2;}.cls-4{fill:#fff;}.cls-5{fill:#1a1a1a;}</style>
</defs>
<title
   id="title3234">p</title>
<rect
   class="cls-1"
   width="180"
   height="180"
   id="rect3236" />
<path
   class="cls-2"
   d="M 89.94,29.92 C 80.174659,29.952971 71.494746,36.14892 68.290801,45.373761 65.086856,54.598602 68.05746,64.840975 75.7,70.92 l -11.91,7.83 -0.9,0.59 v 1.08 c -0.04891,2.459026 0.648386,4.875167 2,6.93 l 0.39,0.72 0.57,1.05 h 11.28 c -0.49,5.61 -2,19.66 -20,31 -8,5 -17.755456,16.36127 -16.677907,28.01155 l -0.110714,5.19524 96.659011,-0.0204 0.74122,-6.33488 C 139.1013,135.35075 130.85,125.17 122.8,120.12 c -17.94,-11.28 -19.5,-25.36 -20,-31 H 114 l 0.57,-1.05 0.39,-0.72 c 1.35161,-2.054833 2.04891,-4.470974 2,-6.93 v -1.08 l -0.9,-0.59 -11.91,-7.86 c 7.64254,-6.079025 10.61314,-16.321398 7.4092,-25.546239 C 108.35525,36.11892 99.675341,29.922971 89.91,29.89 Z"
   id="path3238"
   sodipodi:nodetypes="cscccccccccsccscccccccccscc" />
<path
   class="cls-3"
   d="M 115.16,115.11 C 104.4,107.59 103.67,92.92 102.98,89.57 h 10.85 l 3.87,-9 c 0,0 -11.41,-9.29 -17,-9.46 h 2.75 c 0,0 8.21,-6.84 8.92,-12.88 C 115.25,34.21 96.3,31 96.3,31 c 8.58,4.29 15.07,18.92 7.34,29.82 C 98.12,68.61 87.34,71 87.34,71 h 13.3 c 0.16,0.14 9.38,10 -0.1,16.16 H 65.12 l 0.45,2.5 h 11.45 c 0,0 13.24,13.34 24.21,23.71 10.53,9.93 26.51,11.31 26.51,11.31 0,0 -7.11,-5.74 -12.58,-9.57 z"
   id="path3240" />
<path
   class="cls-4"
   d="M 75,80.42 C 75.6,76 79.14,71 79.24,71 l -16.77,9.42 z"
   id="path3242" />
<path
   class="cls-4"
   d="m 92.05,32 c -8,0.72 -20.82,10.3 -22.32,30 0,0 -8.08,-11.62 3.06,-24.45 C 81.56,27.5 92.05,32 92.05,32 Z"
   id="path3244" />
<path
   class="cls-4"
   d="M 41.847911,152.98982 C 46.835835,138.54134 49.996344,134.2386 62.149362,126.27933 74.875894,117.74481 76.522298,100 76.522298,100 c 0.178326,-0.86 -3.804268,6.67 -8.044442,10.4 -1.396879,1.22 -10.897642,7.84 -14.92977,12.17 -11.40558,9.59241 -12.532359,33.15982 -11.700175,30.41982 z"
   id="path3246"
   sodipodi:nodetypes="cccccc"
   style="stroke-width:0.995337" />

<path
   class="cls-5"
   d="m 89.57348,31.664096 c 9.17004,0.05596 17.24336,6.055603 19.94196,14.819755 2.6986,8.764152 -0.60165,18.265864 -8.15196,23.470245 l -1.09,0.75 14.36,9.46 c 0,3.06 -0.72,4 -2.15,6.7 h -12.3 l 0.1,1 c 0.49,4.570004 0.98465,21.905344 21.24465,34.635344 7.45,4.68 16.19162,16.13585 15.47226,30.80691 l -94.636038,-0.0751 c 0.70267,-11.66533 3.162698,-20.82713 14.894078,-30.51337 20.3,-12.76 21.12505,-30.2938 21.60505,-34.853804 l 0.1,-1 h -12.33 c -1.42,-2.65 -2.15,-3.64 -2.15,-6.7 l 14.39,-9.42 -1.09,-0.74 C 70.22398,64.802668 66.91698,55.295382 69.61666,46.525408 72.31635,37.755434 80.39751,31.753801 89.57348,31.704096 m 0,-4 c -22.22276,0.119956 -33.25427,27.006113 -17.52,42.7 l -9.73,6.42 -1.8,1.19 v 2.15 c -0.0498,2.793624 0.72967,5.539314 2.24,7.89 l 0.39,0.71 1.13,2.100004 h 10.23 c -2.49,17 -14.27,24.41 -18.83,27.27 -17.89089,11.15765 -21.76812,20.70545 -22.7754,33.17341 l -1.011301,12.51776 115.100061,-0.15709 -0.80092,-10.63307 c -1.51364,-20.09522 -10.04561,-26.84206 -22.71244,-34.90101 -15.11,-9.49 -18,-21 -18.86,-27.27 h 10.26 l 1.13,-2.100004 0.39,-0.71 c 1.50681,-2.351791 2.28282,-5.097401 2.23,-7.89 v -2.15 l -1.8,-1.19 -9.73,-6.42 c 15.80599,-15.694466 4.7442,-42.664291 -17.53,-42.74 z"
   id="path157"
   style="opacity:1;fill:#1a1a1a"
   sodipodi:nodetypes="csccccccccccccccccscccccccccccsccsccccccccccc" /></svg>
